#Comment line ignore any data following # character 
#Hierarchical Translation and Rotation (.htr) file 
[Header]	
#Header keywords are followed by a single value 
FileType HTR		#Single word string
DataType HTRS		#Translation followed by rotation and scale data
FileVersion 1		#integer
NumSegments 84		#integer
NumFrames 2		#integer
DataFrameRate 30		#integer, data frame rate in this file
EulerRotationOrder ZYX
CalibrationUnits mm
RotationUnits Degrees
GlobalAxisofGravity Y
BoneLengthAxis Y
ScaleFactor 1.00
[SegmentNames&Hierarchy]
#CHILD	PARENT
MASTER GLOBAL
root MASTER
chest root
L_mid_tent01 root
R_mid_tent01 root
spine01 root
Bip01_Neck chest
L_humerus chest
R_humerus chest
weapon_bone chest
Bip01_Head Bip01_Neck
eye_left_bone Bip01_Head
eye_right_bone Bip01_Head
L_forearm L_humerus
L_front_hand L_forearm
L_weapon_bone L_forearm
L_front_hand01_01 L_front_hand
L_front_hand02_01 L_front_hand
L_front_hand03_01 L_front_hand
L_front_hand01_02 L_front_hand01_01
L_front_hand02_02 L_front_hand02_01
L_front_hand03_02 L_front_hand03_01
R_forearm R_humerus
R_front_hand R_forearm
R_weapon_bone R_forearm
R_front_hand01_01 R_front_hand
R_front_hand02_01 R_front_hand
R_front_hand03_01 R_front_hand
R_front_hand01_02 R_front_hand01_01
R_front_hand02_02 R_front_hand02_01
R_front_hand03_02 R_front_hand03_01
null_rope01_connect L_mid_tent01
Rope1_Seg01 null_rope01_connect
Rope1_Seg02 Rope1_Seg01
Rope1_Seg03 Rope1_Seg02
Rope1_Seg04 Rope1_Seg03
Rope1_Seg05 Rope1_Seg04
Rope1_Seg06 Rope1_Seg05
Rope1_Seg07 Rope1_Seg06
Rope1_Seg09 Rope1_Seg07
L_mid_hand01 Rope1_Seg09
L_mid_hand02 Rope1_Seg09
L_mid_hand03 Rope1_Seg09
null_rope02_connect R_mid_tent01
Rope2_Seg01 null_rope02_connect
Rope2_Seg02 Rope2_Seg01
Rope2_Seg03 Rope2_Seg02
Rope2_Seg04 Rope2_Seg03
Rope2_Seg05 Rope2_Seg04
Rope2_Seg06 Rope2_Seg05
Rope2_Seg07 Rope2_Seg06
Rope2_Seg09 Rope2_Seg07
R_mid_hand01 Rope2_Seg09
R_mid_hand02 Rope2_Seg09
R_mid_hand03 Rope2_Seg09
spine02 spine01
spine03 spine02
pelvis spine03
null_rope03_connect pelvis
null_rope04_connect pelvis
Rope3_Seg01 null_rope03_connect
Rope3_Seg02 Rope3_Seg01
Rope3_Seg03 Rope3_Seg02
Rope3_Seg04 Rope3_Seg03
Rope3_Seg05 Rope3_Seg04
Rope3_Seg06 Rope3_Seg05
Rope3_Seg07 Rope3_Seg06
Rope3_Seg08 Rope3_Seg07
Rope3_Seg09 Rope3_Seg08
R_rear_hand01 Rope3_Seg09
R_rear_hand02 Rope3_Seg09
R_rear_hand03 Rope3_Seg09
Rope4_Seg01 null_rope04_connect
Rope4_Seg02 Rope4_Seg01
Rope4_Seg03 Rope4_Seg02
Rope4_Seg04 Rope4_Seg03
Rope4_Seg05 Rope4_Seg04
Rope4_Seg06 Rope4_Seg05
Rope4_Seg07 Rope4_Seg06
Rope4_Seg08 Rope4_Seg07
Rope4_Seg09 Rope4_Seg08
L_rear_hand01 Rope4_Seg09
L_rear_hand02 Rope4_Seg09
L_rear_hand03 Rope4_Seg09
[BasePosition]
#SegmentName Tx, Ty, Tz, Rx, Ry, Rz, BoneLength
MASTER 0.000000 0.000000 0.000000 -90.000000 0.000000 0.000000 10.000000 
root 0.000000 0.000000 0.000000 0.000000 0.000000 0.000000 10.000000 
chest 0.000000 0.000000 0.000000 0.000000 0.000000 0.000000 10.000000 
L_mid_tent01 0.000000 0.000000 0.000000 0.000000 0.000000 0.000000 10.000000 
R_mid_tent01 0.000000 0.000000 0.000000 0.000000 0.000000 0.000000 10.000000 
spine01 0.000000 0.000000 0.000000 0.000000 0.000000 0.000000 10.000000 
Bip01_Neck 0.000000 0.000000 0.000000 0.000000 0.000000 0.000000 10.000000 
L_humerus 0.000000 0.000000 0.000000 0.000000 0.000000 0.000000 10.000000 
R_humerus 0.000000 0.000000 0.000000 0.000000 0.000000 0.000000 10.000000 
weapon_bone 0.000000 0.000000 0.000000 0.000000 0.000000 0.000000 10.000000 
Bip01_Head 0.000000 0.000000 0.000000 0.000000 0.000000 0.000000 10.000000 
eye_left_bone 0.000000 0.000000 0.000000 0.000000 0.000000 0.000000 10.000000 
eye_right_bone 0.000000 0.000000 0.000000 0.000000 0.000000 0.000000 10.000000 
L_forearm 0.000000 0.000000 0.000000 0.000000 0.000000 0.000000 10.000000 
L_front_hand 0.000000 0.000000 0.000000 0.000000 0.000000 0.000000 10.000000 
L_weapon_bone 0.000000 0.000000 0.000000 0.000000 0.000000 0.000000 10.000000 
L_front_hand01_01 0.000000 0.000000 0.000000 0.000000 0.000000 0.000000 10.000000 
L_front_hand02_01 0.000000 0.000000 0.000000 0.000000 0.000000 0.000000 10.000000 
L_front_hand03_01 0.000000 0.000000 0.000000 0.000000 0.000000 0.000000 10.000000 
L_front_hand01_02 0.000000 0.000000 0.000000 0.000000 0.000000 0.000000 10.000000 
L_front_hand02_02 0.000000 0.000000 0.000000 0.000000 0.000000 0.000000 10.000000 
L_front_hand03_02 0.000000 0.000000 0.000000 0.000000 0.000000 0.000000 10.000000 
R_forearm 0.000000 0.000000 0.000000 0.000000 0.000000 0.000000 10.000000 
R_front_hand 0.000000 0.000000 0.000000 0.000000 0.000000 0.000000 10.000000 
R_weapon_bone 0.000000 0.000000 0.000000 0.000000 0.000000 0.000000 10.000000 
R_front_hand01_01 0.000000 0.000000 0.000000 0.000000 0.000000 0.000000 10.000000 
R_front_hand02_01 0.000000 0.000000 0.000000 0.000000 0.000000 0.000000 10.000000 
R_front_hand03_01 0.000000 0.000000 0.000000 0.000000 0.000000 0.000000 10.000000 
R_front_hand01_02 0.000000 0.000000 0.000000 0.000000 0.000000 0.000000 10.000000 
R_front_hand02_02 0.000000 0.000000 0.000000 0.000000 0.000000 0.000000 10.000000 
R_front_hand03_02 0.000000 0.000000 0.000000 0.000000 0.000000 0.000000 10.000000 
null_rope01_connect 0.000000 0.000000 0.000000 0.000000 0.000000 0.000000 10.000000 
Rope1_Seg01 0.000000 0.000000 0.000000 0.000000 0.000000 0.000000 10.000000 
Rope1_Seg02 0.000000 0.000000 0.000000 0.000000 0.000000 0.000000 10.000000 
Rope1_Seg03 0.000000 0.000000 0.000000 0.000000 0.000000 0.000000 10.000000 
Rope1_Seg04 0.000000 0.000000 0.000000 0.000000 0.000000 0.000000 10.000000 
Rope1_Seg05 0.000000 0.000000 0.000000 0.000000 0.000000 0.000000 10.000000 
Rope1_Seg06 0.000000 0.000000 0.000000 0.000000 0.000000 0.000000 10.000000 
Rope1_Seg07 0.000000 0.000000 0.000000 0.000000 0.000000 0.000000 10.000000 
Rope1_Seg09 0.000000 0.000000 0.000000 0.000000 0.000000 0.000000 10.000000 
L_mid_hand01 0.000000 0.000000 0.000000 0.000000 0.000000 0.000000 10.000000 
L_mid_hand02 0.000000 0.000000 0.000000 0.000000 0.000000 0.000000 10.000000 
L_mid_hand03 0.000000 0.000000 0.000000 0.000000 0.000000 0.000000 10.000000 
null_rope02_connect 0.000000 0.000000 0.000000 0.000000 0.000000 0.000000 10.000000 
Rope2_Seg01 0.000000 0.000000 0.000000 0.000000 0.000000 0.000000 10.000000 
Rope2_Seg02 0.000000 0.000000 0.000000 0.000000 0.000000 0.000000 10.000000 
Rope2_Seg03 0.000000 0.000000 0.000000 0.000000 0.000000 0.000000 10.000000 
Rope2_Seg04 0.000000 0.000000 0.000000 0.000000 0.000000 0.000000 10.000000 
Rope2_Seg05 0.000000 0.000000 0.000000 0.000000 0.000000 0.000000 10.000000 
Rope2_Seg06 0.000000 0.000000 0.000000 0.000000 0.000000 0.000000 10.000000 
Rope2_Seg07 0.000000 0.000000 0.000000 0.000000 0.000000 0.000000 10.000000 
Rope2_Seg09 0.000000 0.000000 0.000000 0.000000 0.000000 0.000000 10.000000 
R_mid_hand01 0.000000 0.000000 0.000000 0.000000 0.000000 0.000000 10.000000 
R_mid_hand02 0.000000 0.000000 0.000000 0.000000 0.000000 0.000000 10.000000 
R_mid_hand03 0.000000 0.000000 0.000000 0.000000 0.000000 0.000000 10.000000 
spine02 0.000000 0.000000 0.000000 0.000000 0.000000 0.000000 10.000000 
spine03 0.000000 0.000000 0.000000 0.000000 0.000000 0.000000 10.000000 
pelvis 0.000000 0.000000 0.000000 0.000000 0.000000 0.000000 10.000000 
null_rope03_connect 0.000000 0.000000 0.000000 0.000000 0.000000 0.000000 10.000000 
null_rope04_connect 0.000000 0.000000 0.000000 0.000000 0.000000 0.000000 10.000000 
Rope3_Seg01 0.000000 0.000000 0.000000 0.000000 0.000000 0.000000 10.000000 
Rope3_Seg02 0.000000 0.000000 0.000000 0.000000 0.000000 0.000000 10.000000 
Rope3_Seg03 0.000000 0.000000 0.000000 0.000000 0.000000 0.000000 10.000000 
Rope3_Seg04 0.000000 0.000000 0.000000 0.000000 0.000000 0.000000 10.000000 
Rope3_Seg05 0.000000 0.000000 0.000000 0.000000 0.000000 0.000000 10.000000 
Rope3_Seg06 0.000000 0.000000 0.000000 0.000000 0.000000 0.000000 10.000000 
Rope3_Seg07 0.000000 0.000000 0.000000 0.000000 0.000000 0.000000 10.000000 
Rope3_Seg08 0.000000 0.000000 0.000000 0.000000 0.000000 0.000000 10.000000 
Rope3_Seg09 0.000000 0.000000 0.000000 0.000000 0.000000 0.000000 10.000000 
R_rear_hand01 0.000000 0.000000 0.000000 0.000000 0.000000 0.000000 10.000000 
R_rear_hand02 0.000000 0.000000 0.000000 0.000000 0.000000 0.000000 10.000000 
R_rear_hand03 0.000000 0.000000 0.000000 0.000000 0.000000 0.000000 10.000000 
Rope4_Seg01 0.000000 0.000000 0.000000 0.000000 0.000000 0.000000 10.000000 
Rope4_Seg02 0.000000 0.000000 0.000000 0.000000 0.000000 0.000000 10.000000 
Rope4_Seg03 0.000000 0.000000 0.000000 0.000000 0.000000 0.000000 10.000000 
Rope4_Seg04 0.000000 0.000000 0.000000 0.000000 0.000000 0.000000 10.000000 
Rope4_Seg05 0.000000 0.000000 0.000000 0.000000 0.000000 0.000000 10.000000 
Rope4_Seg06 0.000000 0.000000 0.000000 0.000000 0.000000 0.000000 10.000000 
Rope4_Seg07 0.000000 0.000000 0.000000 0.000000 0.000000 0.000000 10.000000 
Rope4_Seg08 0.000000 0.000000 0.000000 0.000000 0.000000 0.000000 10.000000 
Rope4_Seg09 0.000000 0.000000 0.000000 0.000000 0.000000 0.000000 10.000000 
L_rear_hand01 0.000000 0.000000 0.000000 0.000000 0.000000 0.000000 10.000000 
L_rear_hand02 0.000000 0.000000 0.000000 0.000000 0.000000 0.000000 10.000000 
L_rear_hand03 0.000000 0.000000 0.000000 0.000000 0.000000 0.000000 10.000000 
#Beginning of Data. Separated by tabs
#Fr	Tx	Ty	Tz	Rx	Ry	Rz	SF
[MASTER]
18 370.036499 -4676.447266 2453.803711 0.000000 -0.002347 -90.000000 5294.075684
19 570.725952 -4963.671387 2292.957031 0.000000 -0.002347 -90.000000 5497.400391
[root]
18 -150.397751 -225.672043 587.383118 -23.918842 -3.997322 -166.884949 646.966919
19 -176.169968 -213.740677 594.030457 -31.849604 -10.306414 -157.434464 655.433533
[chest]
18 -84.512650 -34.090519 0.000000 49.690250 3.023132 152.859299 91.129311
19 -84.512650 -34.090519 0.000000 39.533546 -0.474760 155.373032 91.129311
[L_mid_tent01]
18 27.299789 22.177542 -249.918259 -15.945355 11.542178 44.335262 252.381180
19 27.299805 22.177544 -249.918259 -17.384024 9.913293 38.002026 252.381180
[R_mid_tent01]
18 23.228794 24.509907 226.238495 152.344620 -51.400345 27.236614 228.744751
19 23.228794 24.509907 226.238495 156.309265 -35.105358 12.057427 228.744751
[spine01]
18 -0.361383 -0.195265 0.000000 0.001720 0.001600 4.129663 0.410763
19 -0.361383 -0.195265 0.000000 0.001712 0.001608 3.569667 0.410763
[Bip01_Neck]
18 165.484543 71.581718 0.000119 176.643677 -1.657967 43.431911 180.302734
19 165.484543 71.581718 0.000119 176.643677 -1.657967 43.431911 180.302734
[L_humerus]
18 -13.983130 -135.272980 -120.471481 172.182892 -5.016129 -89.806496 181.680161
19 -13.983130 -135.272980 -120.471481 172.228699 -5.975805 -90.914467 181.680161
[R_humerus]
18 -13.983309 -135.273102 125.287651 -176.999847 6.720959 -85.190613 184.909012
19 -13.983309 -135.273102 125.287651 -176.997284 7.225412 -85.165115 184.909012
[weapon_bone]
18 235.964890 -300.705902 0.000000 0.000000 -89.951546 -128.212341 382.234833
19 235.964890 -300.705902 0.000000 0.000000 -89.951546 -128.212341 382.234833
[Bip01_Head]
18 213.335999 186.016296 7.892026 40.049786 1.401596 -38.854668 283.154724
19 213.341080 186.002274 8.073290 37.357170 1.832581 -39.304291 283.154449
[eye_left_bone]
18 -24.626970 125.451866 -64.772606 0.000000 -90.000000 -99.840431 143.318359
19 -24.626970 125.451866 -64.772606 0.000000 -90.000000 -99.840431 143.318359
[eye_right_bone]
18 -24.626970 125.451866 64.327362 0.000000 -89.965736 80.156380 143.117676
19 -24.626970 125.451866 64.327362 0.000000 -89.980217 80.156387 143.117676
[L_forearm]
18 322.776093 0.000000 -0.000119 0.000119 -0.002344 -95.807457 322.776093
19 322.776093 0.000000 -0.000119 0.000119 -0.002344 -95.807457 322.776093
[L_front_hand]
18 241.149185 -0.042021 -3.300071 -178.667953 -1.835447 -27.422342 241.171753
19 241.149185 -0.042021 -3.300071 -178.667953 -1.835447 -27.422350 241.171753
[L_weapon_bone]
18 156.183838 0.000000 0.000000 0.000014 0.000007 0.000001 156.183838
19 156.183838 0.000000 0.000000 0.000014 0.000007 0.000001 156.183838
[L_front_hand01_01]
18 86.095154 20.947098 -0.655860 -0.334039 -0.500940 71.473785 88.609184
19 86.095154 20.947098 -0.655860 -0.343298 -0.494452 72.684837 88.609184
[L_front_hand02_01]
18 86.935165 -11.437475 24.513514 148.678986 -58.017021 -54.691486 91.046425
19 86.935165 -11.437475 24.513514 150.381821 -58.634846 -56.693264 91.046425
[L_front_hand03_01]
18 86.637497 -14.123976 -20.424902 -148.599625 56.232182 -56.378220 90.126129
19 86.637497 -14.123976 -20.424902 -150.184570 56.852543 -58.280544 90.126129
[L_front_hand01_02]
18 71.020905 -0.000179 0.000030 0.000322 -0.002325 -105.750679 71.020905
19 71.020905 -0.000179 0.000030 0.000323 -0.002325 -105.841873 71.020905
[L_front_hand02_02]
18 71.020927 -0.000119 0.000060 0.000322 -0.002325 -105.750679 71.020927
19 71.020927 -0.000119 0.000060 0.000323 -0.002325 -105.841873 71.020927
[L_front_hand03_02]
18 71.020905 -0.000060 0.000060 0.000322 -0.002325 -105.750679 71.020905
19 71.020905 -0.000060 0.000060 0.000323 -0.002325 -105.841873 71.020905
[R_forearm]
18 322.776428 -0.000060 0.000030 0.209504 0.012586 -94.339050 322.776428
19 322.776428 -0.000060 0.000030 0.209504 0.012586 -94.339058 322.776428
[R_front_hand]
18 238.847015 -0.006795 2.210259 -2.635298 -10.645461 -26.312506 238.857239
19 238.847015 -0.006795 2.210259 -2.635298 -10.645461 -26.312506 238.857239
[R_weapon_bone]
18 155.664093 0.002503 -0.000030 0.003487 0.001180 -90.988930 155.664078
19 155.664093 0.002503 -0.000030 0.003487 0.001180 -90.988930 155.664078
[R_front_hand01_01]
18 87.624611 14.231146 22.918642 -153.536880 -59.633747 60.470901 91.683487
19 87.624611 14.231146 22.918642 -154.633484 -59.950619 61.746037 91.683487
[R_front_hand02_01]
18 89.356956 14.367283 -19.491137 153.567596 57.992992 62.531033 92.579636
19 89.356956 14.367283 -19.491137 154.602661 58.302849 63.744389 92.579636
[R_front_hand03_01]
18 87.286232 -22.307278 -0.143439 0.155617 -0.427176 -75.061508 90.091743
19 87.286232 -22.307278 -0.143439 0.162155 -0.423168 -75.767906 90.091743
[R_front_hand01_02]
18 71.020905 0.000060 0.000119 0.002323 -0.000334 106.381714 71.020905
19 71.020905 0.000060 0.000119 0.002323 -0.000334 106.381721 71.020905
[R_front_hand02_02]
18 71.020844 -0.000030 -0.000119 0.002323 -0.000334 106.381714 71.020836
19 71.020844 -0.000030 -0.000119 0.002323 -0.000334 106.381721 71.020836
[R_front_hand03_02]
18 71.020905 0.000000 0.000030 0.002323 -0.000334 106.381714 71.020905
19 71.020905 0.000000 0.000030 0.002323 -0.000334 106.381721 71.020905
[null_rope01_connect]
18 328.732483 0.000000 -0.000238 -19.645723 40.008614 -155.403641 328.732483
19 328.732483 0.000000 -0.000238 -36.952755 41.215286 -162.378204 328.732483
[Rope1_Seg01]
18 0.000025 0.000377 0.000000 -46.777443 75.550667 138.022736 0.000378
19 0.000025 0.000400 0.000000 -38.348103 36.157188 117.382019 0.000400
[Rope1_Seg02]
18 139.999863 -0.000179 0.000000 5.065330 -24.136213 1.211421 139.999863
19 139.999863 -0.000179 0.000000 2.169054 -22.603111 11.925500 139.999863
[Rope1_Seg03]
18 139.999924 0.000060 -0.000060 -4.521492 -32.700008 9.180017 139.999924
19 139.999924 0.000060 -0.000060 -5.856266 -26.423750 23.954596 139.999924
[Rope1_Seg04]
18 139.999924 -0.000060 -0.000119 -7.057736 -19.032770 -1.265651 139.999924
19 139.999924 -0.000060 -0.000119 -3.763364 -10.057347 -15.438675 139.999924
[Rope1_Seg05]
18 139.999832 0.000119 -0.000060 -7.463389 -10.179295 -13.680304 139.999832
19 139.999832 0.000119 -0.000060 -1.463582 -2.782644 -13.884765 139.999832
[Rope1_Seg06]
18 139.999954 0.000119 -0.000060 -4.737253 -7.575847 -9.643293 139.999954
19 139.999954 0.000119 -0.000060 -0.206128 -2.232515 -5.853667 139.999954
[Rope1_Seg07]
18 139.999985 0.000060 0.000000 -2.813409 -4.568865 -6.484593 139.999985
19 139.999985 0.000060 0.000000 -0.018689 -1.211055 -3.223325 139.999985
[Rope1_Seg09]
18 121.602913 0.000119 -0.000089 -89.793175 -1.359789 0.847147 121.602913
19 121.602913 0.000119 -0.000089 -89.793175 -1.359789 0.847147 121.602913
[L_mid_hand01]
18 103.859421 1.038730 8.195221 116.522400 -56.273506 -23.071619 104.187431
19 103.859421 1.038730 8.195221 119.055557 -59.298035 -26.066509 104.187431
[L_mid_hand02]
18 105.572853 -4.139662 -10.864139 -157.484573 39.487514 -56.304867 106.211075
19 105.572853 -4.139662 -10.864139 -160.167114 40.723133 -60.466225 106.211075
[L_mid_hand03]
18 104.641464 17.579376 -3.913581 -10.068325 15.918207 60.978371 106.179977
19 104.641464 17.579376 -3.913581 -9.090181 16.486181 64.488472 106.179977
[null_rope02_connect]
18 328.732849 0.000179 -0.000119 114.195724 -6.245073 133.078003 328.732849
19 328.732849 0.000179 -0.000119 113.189629 -19.112995 136.815582 328.732849
[Rope2_Seg01]
18 -0.000065 -0.000132 0.000000 -59.169231 -32.465755 -113.125336 0.000147
19 -0.000064 -0.000128 0.000000 -22.307539 -29.346642 -179.041687 0.000143
[Rope2_Seg02]
18 139.999741 -0.000060 -0.000119 -10.098483 21.554977 -35.730515 139.999756
19 139.999741 -0.000060 -0.000119 17.230171 8.963175 -31.088474 139.999756
[Rope2_Seg03]
18 140.000107 0.000030 0.000000 2.893653 16.053318 -23.520464 140.000107
19 140.000107 0.000030 0.000000 3.785515 1.300507 -4.682651 140.000107
[Rope2_Seg04]
18 139.999802 0.000000 -0.000060 4.776786 6.709403 -9.911312 139.999802
19 139.999802 0.000000 -0.000060 3.501004 2.340323 -4.416697 139.999802
[Rope2_Seg05]
18 139.999985 -0.000060 0.000119 4.853267 5.313128 -7.305735 139.999985
19 139.999985 -0.000060 0.000119 3.085032 1.212250 -3.231648 139.999985
[Rope2_Seg06]
18 139.999893 -0.000030 -0.000119 5.603777 3.263624 -5.855000 139.999893
19 139.999893 -0.000030 -0.000119 2.531485 0.632702 -2.359061 139.999893
[Rope2_Seg07]
18 139.999893 0.000060 -0.000060 5.112797 1.715139 -4.200550 139.999893
19 139.999893 0.000060 -0.000060 2.038448 0.394503 -1.782015 139.999893
[Rope2_Seg09]
18 121.338966 0.000089 -0.000060 33.793236 -1.359788 -0.847141 121.338966
19 121.338966 0.000089 -0.000060 33.793236 -1.359788 -0.847141 121.338966
[R_mid_hand01]
18 104.680779 11.144459 -10.335981 -35.915802 33.394672 39.963589 105.778534
19 104.680779 11.144459 -10.335981 -34.395386 34.968529 42.666183 105.778534
[R_mid_hand02]
18 104.070427 2.443552 8.231699 69.545166 -44.771034 15.251748 104.424065
19 104.070427 2.443552 8.231699 68.534218 -47.330906 16.661512 104.424065
[R_mid_hand03]
18 106.028137 -11.221827 -5.996406 -170.436981 12.655029 -49.730141 106.788818
19 106.028137 -11.221827 -5.996406 -171.057129 13.096079 -52.505196 106.788818
[spine02]
18 129.756927 0.001550 0.000119 -1.023899 -3.926965 6.770993 129.756927
19 129.756927 0.001550 0.000119 -1.023899 -3.926965 6.770992 129.756927
[spine03]
18 78.614014 0.087422 -4.898882 1.040681 4.146420 4.212376 78.766556
19 78.614029 0.087428 -4.898883 1.040681 4.146420 4.212376 78.766563
[pelvis]
18 169.435242 0.051022 0.000000 5.396005 -0.188020 -10.717326 169.435257
19 169.435242 0.051022 0.000000 4.540861 -0.188609 -10.717440 169.435257
[null_rope03_connect]
18 -1.257226 -2.466202 137.391083 -7.844805 17.555626 -107.880997 137.418976
19 -1.257226 -2.466202 137.391083 -20.085091 21.702555 -117.566002 137.418976
[null_rope04_connect]
18 -1.259640 -2.480268 -137.844437 -7.844805 17.555626 -107.880997 137.872513
19 -1.259640 -2.480268 -137.844437 -20.085091 21.702555 -117.566002 137.872513
[Rope3_Seg01]
18 0.000025 0.000377 0.000000 -136.101929 -29.713940 109.768234 0.000378
19 0.000025 0.000400 0.000000 -133.950592 -19.215389 110.709213 0.000400
[Rope3_Seg02]
18 139.999924 -0.000119 0.000060 6.047205 -17.641445 -11.431657 139.999924
19 139.999924 -0.000119 0.000060 2.052389 -9.832432 -9.459159 139.999924
[Rope3_Seg03]
18 139.999924 -0.000119 0.000119 7.983695 -12.219896 1.239875 139.999924
19 139.999924 -0.000119 0.000119 2.643410 -6.181190 -1.037840 139.999924
[Rope3_Seg04]
18 139.999924 0.000119 0.000000 -0.908578 -3.381969 -7.279696 139.999924
19 139.999924 0.000119 0.000000 0.364501 -3.123372 -4.046300 139.999924
[Rope3_Seg05]
18 139.999924 -0.000238 0.000060 -13.220045 1.893251 -14.305187 139.999924
19 139.999924 -0.000238 0.000060 -4.527465 -1.296692 -11.415183 139.999924
[Rope3_Seg06]
18 139.999893 -0.000119 -0.000060 -12.308678 3.182133 -8.379810 139.999893
19 139.999893 -0.000119 -0.000060 -8.290206 0.120673 -11.660116 139.999893
[Rope3_Seg07]
18 139.999771 0.000060 -0.000119 -6.833146 2.042731 -3.926667 139.999771
19 139.999771 0.000060 -0.000119 -6.536140 0.593278 -6.664096 139.999771
[Rope3_Seg08]
18 139.999985 -0.000060 0.000000 -4.427503 1.533462 -2.250535 139.999985
19 139.999985 -0.000060 0.000000 -5.432465 0.874654 -4.259378 139.999985
[Rope3_Seg09]
18 90.185997 -0.000179 -0.000060 89.793228 -1.359877 -0.847183 90.185997
19 90.185997 -0.000179 -0.000060 89.793228 -1.359877 -0.847183 90.185997
[R_rear_hand01]
18 103.366196 -6.073594 -10.757982 -166.511459 20.844782 -45.419308 104.101845
19 103.366196 -6.073594 -10.757982 -167.736008 21.565811 -48.800869 104.101845
[R_rear_hand02]
18 100.509819 12.039542 -7.992327 -28.715420 27.221792 42.882896 101.543350
19 100.509819 12.039542 -7.992327 -27.197781 28.737717 46.115421 101.543350
[R_rear_hand03]
18 101.539970 5.215704 5.435467 81.812386 -45.906319 9.761458 101.819031
19 101.539970 5.215704 5.435467 81.295578 -49.108307 10.466796 101.819031
[Rope4_Seg01]
18 0.000003 0.000404 -0.000153 84.314018 58.997517 109.071861 0.000432
19 0.000003 0.000425 -0.000153 80.941711 41.617001 118.252716 0.000452
[Rope4_Seg02]
18 139.999985 0.000060 0.000119 -0.970162 10.696126 7.422120 139.999985
19 139.999985 0.000060 0.000119 -9.301357 8.160084 13.229849 139.999985
[Rope4_Seg03]
18 139.999924 0.000000 -0.000238 -4.757886 15.089696 11.637695 139.999924
19 139.999924 0.000000 -0.000238 -29.101137 7.973465 19.805916 139.999924
[Rope4_Seg04]
18 139.999985 0.000000 0.000119 -44.528378 16.057302 17.200142 139.999985
19 139.999985 0.000000 0.000119 -37.972160 -2.600905 17.512249 139.999985
[Rope4_Seg05]
18 139.999802 -0.000060 -0.000119 -66.275597 2.700238 11.054833 139.999802
19 139.999802 -0.000060 -0.000119 0.016484 -1.150649 -0.488195 139.999802
[Rope4_Seg06]
18 139.999924 0.000000 0.000060 -29.995268 -1.303132 5.016805 139.999924
19 139.999924 0.000000 0.000060 0.637920 -0.618243 -0.590353 139.999924
[Rope4_Seg07]
18 139.999802 0.000000 0.000000 -13.358380 -4.330064 1.590305 139.999802
19 139.999802 0.000000 0.000000 -1.666037 -1.286799 0.515010 139.999802
[Rope4_Seg08]
18 139.999924 0.000000 0.000119 -6.564851 -2.973800 0.296140 139.999924
19 139.999924 0.000000 0.000119 -2.587684 -0.871608 0.323113 139.999924
[Rope4_Seg09]
18 90.185791 0.000060 0.000060 -135.617828 2.228885 0.850567 90.185791
19 90.185791 0.000060 0.000060 -135.617828 2.228885 0.850567 90.185791
[L_rear_hand01]
18 101.696655 -8.392275 -7.654577 -21.250179 -33.196442 122.367813 102.329041
19 101.696655 -8.392275 -7.654577 -19.499575 -34.171803 119.209053 102.329041
[L_rear_hand02]
18 102.726799 -1.568258 5.773216 78.649605 59.766773 166.297333 102.900848
19 102.726799 -1.568258 5.773216 77.604706 62.517124 165.103577 102.900848
[L_rear_hand03]
18 104.552910 9.721220 -10.420293 -172.167084 -23.462944 -119.660828 105.519653
19 104.552910 9.721220 -10.420293 -173.384872 -23.818932 -116.619843 105.519653
